/* XPM */
static char * stick_pressed_xpm[] = {
"18 28 5 1",
" 	c None",
".	c #212121",
"+	c #353535",
"@	c #383838",
"#	c #5294E2",
"..................",
"++++++++++++++++++",
"@@@@@@@@@@@@@@@@@@",
"@@@@@@@@@@@@@@@@@@",
"@@@@@@@@@@@@@@@@@@",
"@@@@@@@@@@@@@@@@@@",
"@@@@@@@@@@@@@@@@@@",
"@@@@@@@@@@@@@@@@@@",
"@@@@@@@@@@@@@@@@@@",
"@@@@@@@@@@@@@@@@@@",
"@@@@@@@@##@@@@@@@@",
"@@@@@@@@##@@@@@@@@",
"@@@@@@@@##@@@@@@@@",
"@@@@@########@@@@@",
"@@@@@########@@@@@",
"@@@@@@@@##@@@@@@@@",
"@@@@@@@@##@@@@@@@@",
"@@@@@@@@##@@@@@@@@",
"@@@@@@@@@@@@@@@@@@",
"@@@@@@@@@@@@@@@@@@",
"@@@@@@@@@@@@@@@@@@",
"@@@@@@@@@@@@@@@@@@",
"@@@@@@@@@@@@@@@@@@",
"@@@@@@@@@@@@@@@@@@",
"@@@@@@@@@@@@@@@@@@",
"@@@@@@@@@@@@@@@@@@",
"@@@@@@@@@@@@@@@@@@",
"@@@@@@@@@@@@@@@@@@"};
